<svg width="22" height="20" viewBox="0 0 22 20" fill="none" xmlns="http://www.w3.org/2000/svg"><path d="M7.273.035C3.377.035.208 1.538 0 3.423c.104 1.044 1.247 1.783 2 2.165 1.325.662 3.195 1.07 5.273 1.07a18.2 18.2 0 001.714-.102 8.123 8.123 0 015.143-2.19c.208-.306.363-.638.415-.943C14.155.646 9.248.009 7.274.035zm7.273 5.094c-4.026 0-7.273 3.185-7.273 7.133 0 3.949 3.247 7.133 7.273 7.133 4.025 0 7.272-3.184 7.272-7.133 0-3.948-3.247-7.133-7.273-7.133zM0 5.435V6.48c.078.738.753 1.528 2 2.14 1.247.61 2.987 1.018 4.935 1.07a7.366 7.366 0 011.091-2.04c-.234 0-.494.026-.727.026-2.234 0-4.234-.433-5.74-1.197A5.33 5.33 0 010 5.435zm0 3.057v1.045c.078.738.753 1.528 2 2.14 1.143.56 2.727.967 4.52 1.07 0-.154-.026-.332-.026-.485 0-.535.051-1.044.155-1.554-1.974-.076-3.766-.51-5.117-1.171C.935 9.23.416 8.9 0 8.492zm0 3.057v1.044c.078.74.753 1.529 2 2.14 1.818.866 3.714 1.07 5.377 1.07a7.808 7.808 0 01-.728-2.063c-1.974-.077-3.766-.51-5.117-1.172-.597-.28-1.116-.611-1.532-1.019zm0 3.057v1.197c0 1.962 3.247 3.567 7.273 3.567a13.31 13.31 0 003.143-.357 8.057 8.057 0 01-2.442-2.216c-.234 0-.468.025-.701.025-2.234 0-4.234-.458-5.74-1.197-.598-.28-1.117-.611-1.533-1.02z" fill="#ff5d39"/></svg>