<svg width="26" height="15" viewBox="0 0 26 15" fill="none" xmlns="http://www.w3.org/2000/svg"><path d="M23.445 0H1.895C.84 0 0 .827 0 1.868v11.264C0 14.172.84 15 1.895 15h21.522c1.056 0 1.895-.827 1.895-1.868V1.868C25.34.828 24.474 0 23.445 0zM4.494 6.085A1.331 1.331 0 013.14 4.751c0-.747.596-1.335 1.354-1.335.758 0 1.354.588 1.354 1.335s-.596 1.334-1.354 1.334zm11.533 4.725c-1.841 1.841-4.846 1.841-6.714 0-1.868-1.815-1.868-4.778 0-6.62 1.84-1.841 4.873-1.841 6.714 0 1.868 1.815 1.868 4.778 0 6.62zm4.819.774a1.331 1.331 0 01-1.354-1.335c0-.747.596-1.334 1.354-1.334a1.33 1.33 0 011.353 1.334c0 .747-.595 1.335-1.353 1.335z" fill="#ff5d39"/><path d="M13.644 6.432l.19.214.514-.614-.108-.133a1.913 1.913 0 00-1.137-.668v-.614h-.704v.614c-.731.107-1.218.64-1.218 1.335 0 .88.65 1.148 1.218 1.334v1.442a1.546 1.546 0 01-.758-.507l-.162-.214-.488.614.109.133c.297.4.758.668 1.299.748v.614h.704v-.614c.92-.134 1.245-.828 1.245-1.388 0-.961-.73-1.281-1.272-1.442V6.032c.216.08.406.214.568.4zm-1.272.614c-.325-.133-.433-.267-.433-.48 0-.267.19-.454.433-.56v1.04zm.73 1.095c.353.16.461.32.488.587 0 .16-.054.48-.487.614V8.14z" fill="#ff5d39"/></svg>